<svg xmlns="http://www.w3.org/2000/svg" width="761.4741" height="1566.6945" viewBox="0 0 761.4741 1566.6945"><defs><style>.cls-1{fill:#0ebdff;}.cls-2{fill:#fff;}.cls-3{fill:none;stroke:#000;stroke-linecap:round;stroke-linejoin:round;stroke-width:5px;}.cls-4{fill:#ff9e9f;}.cls-5{fill:#f06d57;}.cls-6{fill:#163342;}</style></defs><g id="Layer_2" data-name="Layer 2"><g id="_10" data-name="10"><path d="M526.1031,1410.6946l148.6667-3.3334c-3.3818,15.9567-5.2677,38.5072,6,58.6667,9.0039,16.1092,20.022,19.2678,29.3333,34.6667,7.3842,12.2117,13.8116,32.3144,6.6667,66H486.0876a160.4305,160.4305,0,0,1,40.0155-156Z"/><path class="cls-1" d="M687.2292,1419.84l-233.07.5477L452.6989,1120.14q-28.7007,151.8315-57.4013,303.6629l-125.3428,7.2741-17.8291-307.2156L672.64,1099.4575Q679.9347,1259.6485,687.2292,1419.84Z"/><path d="M392.3206,1422.5666l-126.72-2.9775c2.8825,14.2532,4.49,34.3963-5.1142,52.4036-7.6747,14.3895-17.0664,17.2109-25.0031,30.9658-6.294,10.9081-11.7726,28.8647-5.6824,58.9541H426.4288a150.7923,150.7923,0,0,0,.5551-75.628A145.5829,145.5829,0,0,0,392.3206,1422.5666Z"/><path class="cls-2" d="M241.6427,1140.2481q2.47-283.98,4.9388-567.9591l-43.2143-3.7041c-9.0716-24.5463-32.9643-99.0215-3.704-182.7347C234.7365,285.5057,330.625,216.3908,433.02,208.0543,571.03,196.8183,659.8476,300.96,677.49,321.6461c79.026,92.661,116.1332,244.6825,49.3878,350.6531-22.5734,35.8394-52.1613,58.6889-75.3163,72.8469q29.0152,246.9389,58.0306,493.8775l-118.5306,38.2755Z"/><path class="cls-3" d="M540.9081,221.3292l51.7981,46.4385-69.2117,11.1438,21.2438,46.8364A323.5568,323.5568,0,0,0,482.4222,363.43a308.7249,308.7249,0,0,0-74.3735,82.5712"/><path class="cls-3" d="M393.4027,241.0588,352,275.7281l22.265,6.4327Q350.3275,305.7956,326.39,329.43a338.3053,338.3053,0,0,0,6.7093,58.4549A343.7514,343.7514,0,0,0,363.7,475.1468"/><path class="cls-1" d="M427.0881,243.6176c30.87-21.1868,60.7917-28.6146,74.6253-17.9052a20.5941,20.5941,0,0,1,6.376,8.5714h0A438.1924,438.1924,0,0,0,441.568,307.85,417.8588,417.8588,0,0,0,386.492,414.174a204.6751,204.6751,0,0,1,5.5484-105.25A212.8347,212.8347,0,0,1,427.0881,243.6176Z"/><path class="cls-4" d="M415.9751,259.2973q1.0314-24.0652,2.0625-48.1308a53.4682,53.4682,0,0,1-11.7732-1.5358,52.875,52.875,0,0,1-14.2375-5.8636c-8.0338-5.0835-12.1091-12.6271-15.198-19.8626-3.2543-7.6232-11.0838-28.6416-11.1119-92.2177-.0038-8.5152.1308-20.8589,5.7057-35.3627a85.6374,85.6374,0,0,1,8.6679-16.7374L490.995,52.8443l60.422,59.3224c9.7819,18.4373,5.3791,39.6037-9.0228,50.6392-14.3679,11.01-32.772,7.4031-35.3282,6.8623q.5117,32.3078,1.0234,64.6157-12.7376,10.8273-25.4747,21.6547c-5.8133,1.13-12.0083,2.1066-18.56,2.8458A237.7214,237.7214,0,0,1,415.9751,259.2973Z"/><path class="cls-3" d="M343.8138,1163.3844c2.7677-379.74,17.5331-657.6518,32.3218-714.7027a489.6452,489.6452,0,0,1,22.44-65.2906A428.2155,428.2155,0,0,1,508.0894,234.2839"/><path class="cls-3" d="M533.8529,128.7l-23.0483,5.0558,17.5069,14.6229"/><path class="cls-3" d="M406.4258,176.1058a30.3286,30.3286,0,0,0,13.51,4.47,32.0953,32.0953,0,0,0,20.3191-5.4566"/><path class="cls-5" d="M504.7236,110.4289a32.7439,32.7439,0,0,1,23.6166-9.06c16.31.7206,24.4223,13.888,24.9388,14.7613a73.3043,73.3043,0,0,0,6.2962-38.5967c-3.7773-31.8978-29.1716-50.2845-36.8375-55.8442C479.6814-9.5377,409.4134-6.4877,385.1415,27.24a50.5059,50.5059,0,0,0-7.7539,16.6778C386.774,54.1642,412.8,79.7292,454.2844,87.0543a131.8834,131.8834,0,0,0,48.29-.5487q-3.0144,12.099-6.029,24.1983Q500.6346,110.5666,504.7236,110.4289Z"/><path class="cls-3" d="M427.1919,152.7367l-24.5406.1392A76.2972,76.2972,0,0,0,416.1268,105.68a47.4615,47.4615,0,0,0-13.08-4.245,50.3782,50.3782,0,0,0-29.866,4.4887"/><path class="cls-3" d="M437.6669,104.4291A38.56,38.56,0,0,1,455.06,98.9312a39.72,39.72,0,0,1,25.4184,7.5128"/><path class="cls-4" d="M508.522,695.6763c-18.44,10.9944-35.7929,13.6815-42.1417,6.9026-8.0784-8.6257,2.7846-31.376,11.6253-42.505,33.8808-42.65,122.9656-21.4969,137.9033-17.7751q10.4932,29.338,20.9865,58.6764,7.3329,20.502,14.6657,41.0039A78.3557,78.3557,0,0,1,617.5092,752.35a77.2325,77.2325,0,0,1-22.7052-1.9387c-21.7808,22.32-44.7855,29.5167-52.1327,23.01-6.9669-6.17-3.0243-27.47,11.6253-49.4076-24.65,22.75-49.9945,28.2085-57.7632,20.3444C489.4739,737.2111,494.2224,716.3243,508.522,695.6763Z"/><path class="cls-3" d="M540.2129,769.5a95.1785,95.1785,0,0,1,17.2323-48.8773,92.8949,92.8949,0,0,1,23.0084-22.524"/><path class="cls-3" d="M493.1807,729.683a95.1783,95.1783,0,0,1,23.3865-46.25A92.8947,92.8947,0,0,1,542.286,664.062"/><path class="cls-3" d="M651.5611,745.1461,605.0543,613.4455a133.2456,133.2456,0,0,0,30.4558-41.98,130.2916,130.2916,0,0,0,7.82-22.2245"/><path class="cls-6" d="M290.4934,666.4942l-166.14-26.7987a15.1384,15.1384,0,0,1-12.3057-11.3949L46.3133,355.8385A15.1386,15.1386,0,0,1,63.44,337.3426l166.14,26.7987a15.1384,15.1384,0,0,1,12.3057,11.3949l65.7342,272.4621A15.1387,15.1387,0,0,1,290.4934,666.4942Z"/><path class="cls-1" d="M278.6314,679.8591l-166.14-26.7986a15.1386,15.1386,0,0,1-12.3056-11.395L34.4513,369.2035a15.1386,15.1386,0,0,1,17.1271-18.4959l166.14,26.7986a15.1388,15.1388,0,0,1,12.3057,11.395l65.7341,272.462A15.1385,15.1385,0,0,1,278.6314,679.8591Z"/><path class="cls-4" d="M86.1621,453.0343c15.6748-14.67,23.0665-30.5983,18.3129-38.5774-5.8775-9.8656-29.65-6.4989-44.0619-.6116C19.939,430.3792-16.7152,495.3889,8.0383,548.0578c21.8665,46.526,78.1173,54.6242,82.9653,55.2452A78.354,78.354,0,0,0,110.4062,573.46a77.2313,77.2313,0,0,0,4.4307-22.3531c27.4821-14.741,40.7738-34.8493,36.558-43.7123-3.9975-8.4041-25.555-10.52-50.694-2.5248,28.6911-17.3781,40.9607-40.2169,35.5579-49.861C131.3492,446.245,109.9647,445.018,86.1621,453.0343Z"/><path class="cls-3" d="M148.309,503.9456A95.1776,95.1776,0,0,0,96.57,506.955a92.8933,92.8933,0,0,0-28.0189,15.8638"/><path class="cls-3" d="M123.0887,447.72a95.1768,95.1768,0,0,0-50.9195,9.6509,92.8948,92.8948,0,0,0-25.7413,19.3417"/></g></g></svg>